<svg width="297" height="297" viewBox="0 0 297 297" fill="none" xmlns="http://www.w3.org/2000/svg">
<circle cx="148.5" cy="148.5" r="148.5" fill="white"/>
<line y1="-1.5" x2="208.344" y2="-1.5" transform="matrix(0.938388 0.345583 -0.337147 0.941452 33 118.522)" stroke="#AF7D28" stroke-width="3"/>
<line opacity="0.8" x1="35" y1="118.522" x2="35" y2="228.087" stroke="#AF7D28" stroke-width="4"/>
<line x1="33" y1="229.217" x2="262.464" y2="229.217" stroke="#AF7D28" stroke-width="4"/>
<line x1="262.522" y1="231.217" x2="262.522" y2="85.1304" stroke="#AF7D28" stroke-width="4"/>
<line y1="-2" x2="191.154" y2="-2" transform="matrix(-0.963562 0.267484 -0.260613 -0.965443 263.493 82)" stroke="#AF7D28" stroke-width="4"/>
<line y1="-2" x2="120.093" y2="-2" transform="matrix(0.831121 0.556092 -0.545359 0.838202 98.855 37.1304)" stroke="#AF7D28" stroke-width="4"/>
<line x1="201.696" y1="100.783" x2="201.696" y2="228.087" stroke="#AF7D28" stroke-width="4"/>
<line y1="-2" x2="94.9587" y2="-2" transform="matrix(0.00852522 0.999964 -0.999962 0.00876704 79.3044 134.174)" stroke="#AF7D28" stroke-width="4"/>
<line x1="227.42" y1="187.391" x2="227.42" y2="228.087" stroke="#AF7D28" stroke-width="4"/>
<line x1="98.7971" y1="34" x2="98.7971" y2="230.174" stroke="#AF7D28" stroke-width="4"/>
</svg>
